<?xml version="1.0" ?>
<!DOCTYPE svg  PUBLIC '-//W3C//DTD SVG 1.1//EN'  'http://www.w3.org/Graphics/SVG/1.1/DTD/svg11.dtd'>
<!-- Uploaded to: SVG Repo, www.svgrepo.com, Generator: SVG Repo Mixer Tools -->
<svg fill="#000000" width="800px" height="800px" viewBox="0 0 100 100" version="1.1" xml:space="preserve" xmlns="http://www.w3.org/2000/svg" xmlns:xlink="http://www.w3.org/1999/xlink">
<g id="_x31_"/>
<g id="_x32_">
<path d="M67.7,90.6H32.3c-0.8,0-1.5-0.7-1.5-1.5v-6.7c0-5.9,4.8-10.6,10.6-10.6h17.1c5.9,0,10.6,4.8,10.6,10.6v6.7   C69.2,89.9,68.5,90.6,67.7,90.6z M33.8,87.6h32.4v-5.2c0-4.2-3.4-7.6-7.6-7.6H41.4c-4.2,0-7.6,3.4-7.6,7.6V87.6z M58.6,74.7H41.4   c-4.5,0-8.2-3.7-8.2-8.2V38.1c0-0.8,0.7-1.5,1.5-1.5h30.6c0.8,0,1.5,0.7,1.5,1.5v28.4C66.8,71,63.1,74.7,58.6,74.7z M36.2,39.6   v26.9c0,2.9,2.3,5.2,5.2,5.2h17.2c2.9,0,5.2-2.3,5.2-5.2V39.6H36.2z M54.6,81.2c0-0.8-0.7-1.5-1.5-1.5h-6.3c-0.8,0-1.5,0.7-1.5,1.5   s0.7,1.5,1.5,1.5h6.3C54,82.7,54.6,82,54.6,81.2z M70.5,39.6H29.5c-0.8,0-1.5-0.7-1.5-1.5c0-5.5,4.5-10,10-10H62   c5.5,0,10,4.5,10,10C72,38.9,71.3,39.6,70.5,39.6z M31.2,36.6h37.6c-0.7-3.1-3.5-5.5-6.8-5.5H38C34.7,31.1,31.9,33.5,31.2,36.6z    M50,30.8c-5.9,0-10.7-4.8-10.7-10.7S44.1,9.4,50,9.4s10.7,4.8,10.7,10.7S55.9,30.8,50,30.8z M50,12.4c-4.2,0-7.7,3.4-7.7,7.7   s3.4,7.7,7.7,7.7s7.7-3.4,7.7-7.7S54.2,12.4,50,12.4z M50,65.9c-5,0-9.1-4.1-9.1-9.1c0-4.6,0.5-7,1.7-8.2c1.5-1.4,3.1-0.2,3.7,0.3   c0.2,0.2,0.6,0.5,0.8,0.5c0,0,0.7-0.4,1.9-4.1c0.8-2.6,2.4-2.6,3.1-2.5c3.5,0.5,7,10.5,7,13.9C59.1,61.9,55,65.9,50,65.9z    M44.4,51.3c-0.2,0.7-0.5,2.2-0.5,5.6c0,3.4,2.7,6.1,6.1,6.1s6.1-2.7,6.1-6.1c0-2.9-2.7-9.3-4.2-10.7c0,0.1,0,0.1-0.1,0.2   c-1.2,3.7-2.4,5.5-3.9,6C46.4,52.8,45.2,51.9,44.4,51.3C44.5,51.3,44.4,51.3,44.4,51.3z"/>
</g>
<g id="_x33_"/>
<g id="_x34_"/>
<g id="_x35_"/>
<g id="_x36_"/>
<g id="_x37_"/>
<g id="_x38__x27_"/>
<g id="_x39_"/>
<g id="_x31_0"/>
<g id="_x31_1"/>
<g id="_x31_2"/>
<g id="_x31_3"/>
<g id="_x31_4"/>
<g id="_x31_5"/>
<g id="_x31_6"/>
<g id="_x31_7"/>
<g id="_x31_8"/>
<g id="_x31_9"/>
<g id="_x32_0"/>
<g id="_x32_1"/>
<g id="_x32_2"/>
<g id="_x32_3"/>
<g id="_x32_4"/>
<g id="_x32_5"/>
</svg>