<?xml version="1.0" ?>
<!DOCTYPE svg  PUBLIC '-//W3C//DTD SVG 1.1//EN'  'http://www.w3.org/Graphics/SVG/1.1/DTD/svg11.dtd'>
<!-- Uploaded to: SVG Repo, www.svgrepo.com, Generator: SVG Repo Mixer Tools -->
<svg fill="#000000" width="800px" height="800px" viewBox="0 0 100 100" version="1.1" xml:space="preserve" xmlns="http://www.w3.org/2000/svg" xmlns:xlink="http://www.w3.org/1999/xlink">
<g id="_x31_"/>
<g id="_x32_"/>
<g id="_x33_"/>
<g id="_x34_"/>
<g id="_x35_"/>
<g id="_x36_"/>
<g id="_x37_"/>
<g id="_x38__x27_"/>
<g id="_x39_"/>
<g id="_x31_0"/>
<g id="_x31_1"/>
<g id="_x31_2"/>
<g id="_x31_3"/>
<g id="_x31_4"/>
<g id="_x31_5"/>
<g id="_x31_6"/>
<g id="_x31_7"/>
<g id="_x31_8"/>
<g id="_x31_9"/>
<g id="_x32_0"/>
<g id="_x32_1">
<path d="M63.4,90.8H36.9c-3.4,0-6.2-2.8-6.2-6.2V36.4c0-3.4,2.8-6.2,6.2-6.2h26.5c3.4,0,6.2,2.8,6.2,6.2v48.3   C69.6,88,66.8,90.8,63.4,90.8z M36.9,33.2c-1.8,0-3.2,1.4-3.2,3.2v48.3c0,1.8,1.4,3.2,3.2,3.2h26.5c1.8,0,3.2-1.4,3.2-3.2V36.4   c0-1.8-1.4-3.2-3.2-3.2H36.9z M49.1,33.2H36.8c-0.8,0-1.5-0.7-1.5-1.5v-5.8c0-0.8,0.7-1.5,1.5-1.5h12.2c0.8,0,1.5,0.7,1.5,1.5v5.8   C50.6,32.5,49.9,33.2,49.1,33.2z M38.3,30.2h9.2v-2.8h-9.2V30.2z M46.3,27.4h-6.7c-0.8,0-1.5-0.7-1.5-1.5V14c0-2.7,2.2-4.8,4.8-4.8   s4.8,2.2,4.8,4.8v11.9C47.8,26.7,47.1,27.4,46.3,27.4z M41.1,24.4h3.7V14c0-1-0.8-1.8-1.8-1.8S41.1,13,41.1,14V24.4z M61,59.6H39.3   c-0.8,0-1.5-0.7-1.5-1.5V46.9c0-0.8,0.7-1.5,1.5-1.5H61c0.8,0,1.5,0.7,1.5,1.5v11.2C62.5,58.9,61.8,59.6,61,59.6z M40.8,56.6h18.7   v-8.2H40.8V56.6z M62.7,33.2h-6.8c-0.8,0-1.5-0.7-1.5-1.5v-5.1c0-0.8,0.7-1.5,1.5-1.5h6.8c0.8,0,1.5,0.7,1.5,1.5v5.1   C64.2,32.5,63.5,33.2,62.7,33.2z M57.4,30.2h3.8v-2.1h-3.8V30.2z M56.8,39.3c0-0.8-0.7-1.5-1.5-1.5h-11c-0.8,0-1.5,0.7-1.5,1.5   s0.7,1.5,1.5,1.5h11C56.1,40.8,56.8,40.2,56.8,39.3z M47.4,68c0-0.8-0.7-1.5-1.5-1.5h-5.5c-0.8,0-1.5,0.7-1.5,1.5s0.7,1.5,1.5,1.5   h5.5C46.8,69.5,47.4,68.8,47.4,68z M61.4,68c0-0.8-0.7-1.5-1.5-1.5h-5.5c-0.8,0-1.5,0.7-1.5,1.5s0.7,1.5,1.5,1.5h5.5   C60.8,69.5,61.4,68.8,61.4,68z M47.4,78c0-0.8-0.7-1.5-1.5-1.5h-5.5c-0.8,0-1.5,0.7-1.5,1.5s0.7,1.5,1.5,1.5h5.5   C46.8,79.5,47.4,78.8,47.4,78z M61.4,78c0-0.8-0.7-1.5-1.5-1.5h-5.5c-0.8,0-1.5,0.7-1.5,1.5s0.7,1.5,1.5,1.5h5.5   C60.8,79.5,61.4,78.8,61.4,78z M32.2,62.6h-5c-0.8,0-1.5-0.7-1.5-1.5V40.5c0-0.8,0.7-1.5,1.5-1.5h5c0.8,0,1.5,0.7,1.5,1.5v20.6   C33.7,61.9,33,62.6,32.2,62.6z M28.7,59.6h2V42h-2V59.6z M72.8,49.5h-4.7c-0.8,0-1.5-0.7-1.5-1.5v-8.3c0-0.8,0.7-1.5,1.5-1.5h4.7   c0.8,0,1.5,0.7,1.5,1.5V48C74.3,48.8,73.6,49.5,72.8,49.5z M69.6,46.5h1.7v-5.3h-1.7V46.5z M72.8,69.5h-4.7c-0.8,0-1.5-0.7-1.5-1.5   v-8.3c0-0.8,0.7-1.5,1.5-1.5h4.7c0.8,0,1.5,0.7,1.5,1.5V68C74.3,68.8,73.6,69.5,72.8,69.5z M69.6,66.5h1.7v-5.3h-1.7V66.5z"/>
</g>
<g id="_x32_2"/>
<g id="_x32_3"/>
<g id="_x32_4"/>
<g id="_x32_5"/>
</svg>