<?xml version="1.0" ?>
<!DOCTYPE svg  PUBLIC '-//W3C//DTD SVG 1.1//EN'  'http://www.w3.org/Graphics/SVG/1.1/DTD/svg11.dtd'>
<!-- Uploaded to: SVG Repo, www.svgrepo.com, Generator: SVG Repo Mixer Tools -->
<svg fill="#000000" width="800px" height="800px" viewBox="0 0 100 100" version="1.1" xml:space="preserve" xmlns="http://www.w3.org/2000/svg" xmlns:xlink="http://www.w3.org/1999/xlink">
<g id="_x31_"/>
<g id="_x32_"/>
<g id="_x33_"/>
<g id="_x34_"/>
<g id="_x35_"/>
<g id="_x36_"/>
<g id="_x37_"/>
<g id="_x38__x27_"/>
<g id="_x39_"/>
<g id="_x31_0"/>
<g id="_x31_1">
<path d="M78.9,84.7H21.1c-5.1,0-9.2-4.1-9.2-9.2s4.1-9.2,9.2-9.2h57.8c5.1,0,9.2,4.1,9.2,9.2S84,84.7,78.9,84.7z M21.1,69.2   c-3.4,0-6.2,2.8-6.2,6.2c0,3.4,2.8,6.2,6.2,6.2h57.8c3.4,0,6.2-2.8,6.2-6.2c0-3.4-2.8-6.2-6.2-6.2H21.1z M50,68.4   c-11.3,0-20.5-9.2-20.5-20.5c0-10.5,1.1-16.5,3.6-18.9c2.3-2.2,4.7-0.3,6.4,1c1.6,1.2,2.7,2,3.8,1.7c1.4-0.4,3.6-2.8,6.4-11.6   c1.4-4.3,3.6-5,5.2-4.7c7.1,1.1,15.6,24,15.6,32.5C70.5,59.2,61.3,68.4,50,68.4z M35.5,31c-0.1,0-0.2,0-0.3,0.1   c-1.2,1.2-2.7,5.1-2.7,16.7c0,9.6,7.8,17.5,17.5,17.5s17.5-7.8,17.5-17.5c0-9-8.8-28.9-13.1-29.5c-0.9-0.1-1.6,1.8-1.9,2.7   c-2.7,8.4-5.2,12.6-8.3,13.6c-2.7,0.8-4.9-0.9-6.6-2.2C36.3,31.4,35.8,31,35.5,31z M50,68.4c-6.1,0-11-4.9-11-11   c0-5.5,0.6-8.6,2-10c1.6-1.6,3.3-0.2,4.2,0.4c0.4,0.3,1,0.8,1.2,0.7c0.1,0,1.2-0.5,2.7-5.3c0.9-2.8,2.5-3,3.4-2.9   c4.2,0.7,8.4,12.8,8.4,17C61,63.4,56.1,68.4,50,68.4z M42.9,49.9c-0.4,0.7-0.9,2.5-0.9,7.5c0,4.4,3.6,8,8,8s8-3.6,8-8   c0-4.1-3.9-12.9-5.7-13.9c-0.1,0.1-0.2,0.4-0.3,0.7c-1.4,4.5-2.8,6.7-4.7,7.3c-1.7,0.5-3.1-0.5-4-1.2C43.2,50.1,43,50,42.9,49.9z    M36.6,75.8c0-0.8-0.7-1.5-1.5-1.5h-9.7c-0.8,0-1.5,0.7-1.5,1.5s0.7,1.5,1.5,1.5h9.7C36,77.3,36.6,76.6,36.6,75.8z M76.4,75.8   c0-0.8-0.7-1.5-1.5-1.5h-9.7c-0.8,0-1.5,0.7-1.5,1.5s0.7,1.5,1.5,1.5h9.7C75.7,77.3,76.4,76.6,76.4,75.8z"/>
</g>
<g id="_x31_2"/>
<g id="_x31_3"/>
<g id="_x31_4"/>
<g id="_x31_5"/>
<g id="_x31_6"/>
<g id="_x31_7"/>
<g id="_x31_8"/>
<g id="_x31_9"/>
<g id="_x32_0"/>
<g id="_x32_1"/>
<g id="_x32_2"/>
<g id="_x32_3"/>
<g id="_x32_4"/>
<g id="_x32_5"/>
</svg>