<?xml version="1.0" ?>
<!DOCTYPE svg  PUBLIC '-//W3C//DTD SVG 1.1//EN'  'http://www.w3.org/Graphics/SVG/1.1/DTD/svg11.dtd'>
<!-- Uploaded to: SVG Repo, www.svgrepo.com, Generator: SVG Repo Mixer Tools -->
<svg fill="#000000" width="800px" height="800px" viewBox="0 0 100 100" version="1.1" xml:space="preserve" xmlns="http://www.w3.org/2000/svg" xmlns:xlink="http://www.w3.org/1999/xlink">
<g id="_x31_"/>
<g id="_x32_"/>
<g id="_x33_"/>
<g id="_x34_"/>
<g id="_x35_"/>
<g id="_x36_"/>
<g id="_x37_"/>
<g id="_x38__x27_"/>
<g id="_x39_"/>
<g id="_x31_0"/>
<g id="_x31_1"/>
<g id="_x31_2"/>
<g id="_x31_3"/>
<g id="_x31_4"/>
<g id="_x31_5"/>
<g id="_x31_6"/>
<g id="_x31_7"/>
<g id="_x31_8"/>
<g id="_x31_9"/>
<g id="_x32_0"/>
<g id="_x32_1"/>
<g id="_x32_2"/>
<g id="_x32_3"/>
<g id="_x32_4"/>
<g id="_x32_5">
<path d="M66.4,59.4c-2.5,0-4.9-0.9-7-2.5c-4.9-3.7-8.1-11.2-8.2-19.4c0-0.2,0-0.4,0-0.6c0-12.4,6.8-22.5,15.3-22.5   c8.4,0,15.2,10.1,15.2,22.5C81.7,49.3,74.8,59.4,66.4,59.4z M66.4,17.4c-6.8,0-12.3,8.8-12.3,19.5c0,0.2,0,0.3,0,0.5   c0.1,7.4,2.8,13.9,7,17.1c1.6,1.3,3.4,1.9,5.2,1.9c6.8,0,12.2-8.7,12.2-19.5C78.7,26.1,73.2,17.4,66.4,17.4z M66.4,47.7   c-1.3,0-2.5-0.4-3.6-1.3c-2.4-1.8-3.9-5.4-4-9.3c0-0.1,0-0.2,0-0.3c0-6.1,3.4-10.9,7.6-10.9c4.3,0,7.6,4.8,7.6,10.9   C74,43,70.7,47.7,66.4,47.7z M66.4,29c-2.5,0-4.6,3.6-4.6,7.9l0,0.2c0.1,3,1.2,5.8,2.8,7c0.6,0.4,1.2,0.7,1.8,0.7   c2.5,0,4.6-3.6,4.6-7.9C71,32.6,68.9,29,66.4,29z M52.7,38.9H19.8c-0.8,0-1.5-0.7-1.5-1.5v-5.3c0-9.8,8-17.7,17.7-17.7h30.4   c0.8,0,1.5,0.7,1.5,1.5s-0.7,1.5-1.5,1.5c-6.8,0-12.3,8.8-12.3,19.5c0,0.2,0,0.3,0,0.5c0,0.4-0.1,0.8-0.4,1.1S53.1,38.9,52.7,38.9z    M21.3,35.9h29.8c0.2-7.9,3.2-14.8,7.6-18.6H36.1c-8.1,0-14.7,6.6-14.7,14.7V35.9z M30.4,85.6c-6.1,0-10.9-2.5-11.2-2.7   c-0.5-0.3-0.8-0.8-0.8-1.3V37.4c0-0.8,0.7-1.5,1.5-1.5h32.8c0.8,0,1.5,0.7,1.5,1.5c0.1,7.3,2.8,13.9,7,17.1   c0.4,0.3,0.6,0.7,0.6,1.2v26c0,0.5-0.3,1-0.7,1.3c-0.4,0.3-1,0.3-1.5,0.1c-0.1-0.1-10.6-5.2-19.2-0.1C37.1,85,33.5,85.6,30.4,85.6z    M21.3,80.7c2.5,1.1,10.5,3.9,17.6-0.3c7.5-4.5,16-2.4,19.9-1v-23c-4.3-3.6-7.1-10.2-7.6-17.5H21.3V80.7z"/>
</g>
</svg>