<?xml version="1.0" ?>
<!DOCTYPE svg  PUBLIC '-//W3C//DTD SVG 1.1//EN'  'http://www.w3.org/Graphics/SVG/1.1/DTD/svg11.dtd'>
<!-- Uploaded to: SVG Repo, www.svgrepo.com, Generator: SVG Repo Mixer Tools -->
<svg fill="#000000" width="800px" height="800px" viewBox="0 0 100 100" version="1.1" xml:space="preserve" xmlns="http://www.w3.org/2000/svg" xmlns:xlink="http://www.w3.org/1999/xlink">
<g id="_x31_"/>
<g id="_x32_"/>
<g id="_x33_"/>
<g id="_x34_"/>
<g id="_x35_">
<path d="M29.9,78.1c-3.8,0-6.9-3.1-6.9-6.9c0-3.8,3.1-6.9,6.9-6.9s6.9,3.1,6.9,6.9C36.8,75,33.7,78.1,29.9,78.1z M29.9,67.4   c-2.1,0-3.9,1.7-3.9,3.9c0,2.1,1.7,3.9,3.9,3.9s3.9-1.7,3.9-3.9C33.8,69.1,32.1,67.4,29.9,67.4z M69.9,78.1c-3.8,0-6.9-3.1-6.9-6.9   c0-3.8,3.1-6.9,6.9-6.9s6.9,3.1,6.9,6.9C76.8,75,73.7,78.1,69.9,78.1z M69.9,67.4c-2.1,0-3.9,1.7-3.9,3.9c0,2.1,1.7,3.9,3.9,3.9   s3.9-1.7,3.9-3.9C73.8,69.1,72.1,67.4,69.9,67.4z M30.1,52v-8.9c0-0.8-0.7-1.5-1.5-1.5s-1.5,0.7-1.5,1.5V52c0,0.8,0.7,1.5,1.5,1.5   S30.1,52.8,30.1,52z M76.6,58h-5.1v-2.6c0-0.9-0.3-1.8-0.8-2.5l-1.5-2.1c-0.3-0.4-0.3-0.9-0.2-1.1c0.1-0.2,0.2-0.6,0.7-0.9l2.1-1   c1.1-0.5,1.9-1.5,2.3-2.7c0.4-1.2,0.2-2.4-0.4-3.5l-2-3.3c-0.1-0.2-0.2-0.4-0.2-0.7v-5c0-0.8-0.7-1.5-1.5-1.5s-1.5,0.7-1.5,1.5v5   c0,0.8,0.2,1.6,0.6,2.2l2,3.3c0.2,0.3,0.2,0.7,0.1,1.1c-0.1,0.4-0.4,0.7-0.7,0.8l-2.1,1c-1.2,0.6-2,1.6-2.4,2.8   c-0.3,1.3-0.1,2.6,0.7,3.6l1.5,2.1c0.2,0.2,0.3,0.5,0.3,0.8V58H39V45.5c0-11.8-5.9-22.6-15.9-28.8c-0.5-0.3-1-0.3-1.5,0   s-0.8,0.8-0.8,1.3v40.2c-5.8,1.2-10.2,6.4-10.2,12.5c0,7,5.7,12.8,12.8,12.8h53.1c7,0,12.8-5.7,12.8-12.8S83.6,58,76.6,58z    M23.9,20.8C31.5,26.6,36,35.7,36,45.5V58H23.9V20.8z M76.6,80.5H23.4c-5.4,0-9.8-4.4-9.8-9.8S18,61,23.4,61h14.1h39.1   c5.4,0,9.8,4.4,9.8,9.8S82,80.5,76.6,80.5z"/>
</g>
<g id="_x36_"/>
<g id="_x37_"/>
<g id="_x38__x27_"/>
<g id="_x39_"/>
<g id="_x31_0"/>
<g id="_x31_1"/>
<g id="_x31_2"/>
<g id="_x31_3"/>
<g id="_x31_4"/>
<g id="_x31_5"/>
<g id="_x31_6"/>
<g id="_x31_7"/>
<g id="_x31_8"/>
<g id="_x31_9"/>
<g id="_x32_0"/>
<g id="_x32_1"/>
<g id="_x32_2"/>
<g id="_x32_3"/>
<g id="_x32_4"/>
<g id="_x32_5"/>
</svg>