<?xml version="1.0" ?>
<!DOCTYPE svg  PUBLIC '-//W3C//DTD SVG 1.1//EN'  'http://www.w3.org/Graphics/SVG/1.1/DTD/svg11.dtd'>
<!-- Uploaded to: SVG Repo, www.svgrepo.com, Generator: SVG Repo Mixer Tools -->
<svg fill="#000000" width="800px" height="800px" viewBox="0 0 100 100" version="1.1" xml:space="preserve" xmlns="http://www.w3.org/2000/svg" xmlns:xlink="http://www.w3.org/1999/xlink">
<g id="_x31_"/>
<g id="_x32_"/>
<g id="_x33_"/>
<g id="_x34_"/>
<g id="_x35_"/>
<g id="_x36_"/>
<g id="_x37_"/>
<g id="_x38__x27_"/>
<g id="_x39_"/>
<g id="_x31_0"/>
<g id="_x31_1"/>
<g id="_x31_2"/>
<g id="_x31_3"/>
<g id="_x31_4"/>
<g id="_x31_5"/>
<g id="_x31_6"/>
<g id="_x31_7"/>
<g id="_x31_8"/>
<g id="_x31_9"/>
<g id="_x32_0"/>
<g id="_x32_1"/>
<g id="_x32_2"/>
<g id="_x32_3"/>
<g id="_x32_4">
<path d="M86,66.2H63c-0.8,0-1.5-0.7-1.5-1.5V54.6c0-0.8,0.7-1.5,1.5-1.5h23c3.6,0,6.5,2.9,6.5,6.5S89.6,66.2,86,66.2z M64.5,63.2   H86c1.9,0,3.5-1.6,3.5-3.5s-1.6-3.5-3.5-3.5H64.5V63.2z M38.2,75.2H18.4c-6,0-10.9-4.9-10.9-10.9V51.8c0-0.8,0.7-1.5,1.5-1.5h38.6   c0.8,0,1.5,0.7,1.5,1.5v12.5C49.1,70.3,44.2,75.2,38.2,75.2z M10.5,53.3v11c0,4.4,3.6,7.9,7.9,7.9h19.7c4.4,0,7.9-3.6,7.9-7.9v-11   H10.5z M63,63.6H47.6c-0.8,0-1.5-0.7-1.5-1.5v-4.9c0-0.8,0.7-1.5,1.5-1.5H63c0.8,0,1.5,0.7,1.5,1.5v4.9   C64.5,62.9,63.8,63.6,63,63.6z M49.1,60.6h12.4v-1.9H49.1V60.6z M31.2,66.6c0-0.8-0.7-1.5-1.5-1.5H18.4c-0.8,0-1.5,0.7-1.5,1.5   s0.7,1.5,1.5,1.5h11.2C30.5,68.1,31.2,67.4,31.2,66.6z M20.5,40.7c0.2-0.2,1.9-1.8,2-4.2c0.1-1.6-0.6-3.1-1.9-4.5   c-2.1-2.2-0.6-4-0.1-4.5c0.6-0.6,0.6-1.5,0.1-2.1c-0.6-0.6-1.5-0.6-2.1-0.1c-0.2,0.2-1.9,1.8-2,4.2c-0.1,1.6,0.6,3.1,1.9,4.5   c2.1,2.3,0.6,4,0.1,4.5c-0.6,0.6-0.6,1.5-0.1,2.1c0.3,0.3,0.7,0.5,1.1,0.5C19.8,41.1,20.2,40.9,20.5,40.7z M38.5,40.7   c0.2-0.2,1.9-1.8,2-4.2c0.1-1.6-0.6-3.1-1.9-4.5c-2.1-2.2-0.6-4-0.1-4.5c0.6-0.6,0.6-1.5,0.1-2.1c-0.6-0.6-1.5-0.6-2.1-0.1   c-0.2,0.2-1.9,1.8-2,4.2c-0.1,1.6,0.6,3.1,1.9,4.5c2.1,2.3,0.6,4,0.1,4.5c-0.6,0.6-0.6,1.5-0.1,2.1c0.3,0.3,0.7,0.5,1.1,0.5   C37.8,41.1,38.2,40.9,38.5,40.7z"/>
</g>
<g id="_x32_5"/>
</svg>