<?xml version="1.0" ?>
<!DOCTYPE svg  PUBLIC '-//W3C//DTD SVG 1.1//EN'  'http://www.w3.org/Graphics/SVG/1.1/DTD/svg11.dtd'>
<!-- Uploaded to: SVG Repo, www.svgrepo.com, Generator: SVG Repo Mixer Tools -->
<svg fill="#000000" width="800px" height="800px" viewBox="0 0 100 100" version="1.1" xml:space="preserve" xmlns="http://www.w3.org/2000/svg" xmlns:xlink="http://www.w3.org/1999/xlink">
<g id="_x31_"/>
<g id="_x32_"/>
<g id="_x33_"/>
<g id="_x34_"/>
<g id="_x35_"/>
<g id="_x36_"/>
<g id="_x37_"/>
<g id="_x38__x27_"/>
<g id="_x39_"/>
<g id="_x31_0"/>
<g id="_x31_1"/>
<g id="_x31_2"/>
<g id="_x31_3"/>
<g id="_x31_4"/>
<g id="_x31_5"/>
<g id="_x31_6"/>
<g id="_x31_7"/>
<g id="_x31_8"/>
<g id="_x31_9"/>
<g id="_x32_0"/>
<g id="_x32_1"/>
<g id="_x32_2">
<path d="M50,46.3c-18.6,0-33.2-6.7-33.2-15.2S31.4,15.9,50,15.9s33.2,6.7,33.2,15.2S68.6,46.3,50,46.3z M50,18.9   c-18.1,0-30.2,6.3-30.2,12.2S31.9,43.3,50,43.3S80.2,37,80.2,31.1S68.1,18.9,50,18.9z M36.9,34.9h-7.5c-2.2,0-4-1.8-4-4   c0-2.2,1.8-4,4-4h7.5c2.2,0,4,1.8,4,4C40.9,33.1,39.1,34.9,36.9,34.9z M29.4,29.8c-0.6,0-1,0.5-1,1c0,0.6,0.5,1,1,1h7.5   c0.6,0,1-0.5,1-1c0-0.6-0.5-1-1-1H29.4z M31,81.8c-0.1,0-0.3,0-0.4-0.1c-2.6-0.8-5-1.7-7.1-2.9c-4.1-2.2-6.7-6.5-6.7-11.2V31.1   c0-0.8,0.7-1.5,1.5-1.5s1.5,0.7,1.5,1.5c0,5.9,12.2,12.2,30.2,12.2S80.2,37,80.2,31.1c0-0.8,0.7-1.5,1.5-1.5s1.5,0.7,1.5,1.5v36.4   c0,4.7-2.5,8.9-6.5,11.1c-2.2,1.2-4.6,2.1-7.3,2.9c-0.5,0.1-0.9,0-1.3-0.2c-0.4-0.3-0.6-0.7-0.6-1.2V54.6h-35v25.7   c0,0.5-0.2,0.9-0.6,1.2C31.6,81.6,31.3,81.8,31,81.8z M19.8,37.5v30.2c0,3.6,2,6.8,5.1,8.5c1.4,0.7,3,1.4,4.6,2V53.1   c0-0.8,0.7-1.5,1.5-1.5h38c0.8,0,1.5,0.7,1.5,1.5v25c1.7-0.6,3.3-1.3,4.8-2.1c3.1-1.6,5-4.9,5-8.4v-30C75,42.7,63.6,46.3,50,46.3   S25,42.7,19.8,37.5z M49.7,84.1c-7.2,0-13.7-0.8-19.1-2.4c-0.6-0.2-1.1-0.8-1.1-1.4V53.1c0-0.8,0.7-1.5,1.5-1.5h38   c0.8,0,1.5,0.7,1.5,1.5v27c0,0.7-0.4,1.2-1.1,1.4C63.8,83.2,57.1,84.1,49.7,84.1z M32.5,79.1c4.9,1.3,10.7,2,17.2,2   c6.7,0,12.7-0.7,17.8-2.1V54.6h-35V79.1z M49.7,77.6c-5,0-9.1-4.1-9.1-9.1s4.1-9.1,9.1-9.1s9.1,4.1,9.1,9.1S54.7,77.6,49.7,77.6z    M49.7,62.4c-3.4,0-6.1,2.7-6.1,6.1s2.7,6.1,6.1,6.1s6.1-2.7,6.1-6.1S53,62.4,49.7,62.4z"/>
</g>
<g id="_x32_3"/>
<g id="_x32_4"/>
<g id="_x32_5"/>
</svg>