<?xml version="1.0" ?>
<!DOCTYPE svg  PUBLIC '-//W3C//DTD SVG 1.1//EN'  'http://www.w3.org/Graphics/SVG/1.1/DTD/svg11.dtd'>
<!-- Uploaded to: SVG Repo, www.svgrepo.com, Generator: SVG Repo Mixer Tools -->
<svg fill="#000000" width="800px" height="800px" viewBox="0 0 100 100" version="1.1" xml:space="preserve" xmlns="http://www.w3.org/2000/svg" xmlns:xlink="http://www.w3.org/1999/xlink">
<g id="_x31_"/>
<g id="_x32_"/>
<g id="_x33_"/>
<g id="_x34_"/>
<g id="_x35_"/>
<g id="_x36_"/>
<g id="_x37_"/>
<g id="_x38__x27_"/>
<g id="_x39_"/>
<g id="_x31_0"/>
<g id="_x31_1"/>
<g id="_x31_2"/>
<g id="_x31_3">
<path d="M50,87.8c-18.3,0-33.3-14.9-33.3-33.3S31.7,21.3,50,21.3s33.3,14.9,33.3,33.3S68.3,87.8,50,87.8z M50,24.3   c-16.7,0-30.3,13.6-30.3,30.3S33.3,84.8,50,84.8s30.3-13.6,30.3-30.3S66.7,24.3,50,24.3z M50,82.5c-15.4,0-27.9-12.5-27.9-27.9   S34.6,26.6,50,26.6c15.4,0,27.9,12.5,27.9,27.9S65.4,82.5,50,82.5z M50,29.6c-13.8,0-24.9,11.2-24.9,24.9S36.3,79.5,50,79.5   s24.9-11.2,24.9-24.9S63.8,29.6,50,29.6z M60.2,67.5c-0.5,0-0.9-0.1-1.4-0.4l-12.9-7.4c-0.4-0.2-0.8-0.6-1-1l-7.4-12.9   c-0.6-1.1-0.5-2.4,0.4-3.3c0.9-0.9,2.2-1.1,3.3-0.4l12.9,7.4c0.4,0.2,0.8,0.6,1,1l7.4,12.9c0.6,1.1,0.5,2.4-0.4,3.3   C61.6,67.2,60.9,67.5,60.2,67.5z M47.4,57.1l12,6.9l-6.9-12l-12-6.9L47.4,57.1z M50,24.3c-3.3,0-6.1-2.7-6.1-6.1s2.7-6.1,6.1-6.1   c3.3,0,6.1,2.7,6.1,6.1S53.3,24.3,50,24.3z M50,15.2c-1.7,0-3.1,1.4-3.1,3.1s1.4,3.1,3.1,3.1c1.7,0,3.1-1.4,3.1-3.1   S51.7,15.2,50,15.2z M72.9,54.6c0-0.8-0.7-1.5-1.5-1.5h-3.6c-0.8,0-1.5,0.7-1.5,1.5s0.7,1.5,1.5,1.5h3.6   C72.2,56.1,72.9,55.4,72.9,54.6z M53.3,34.4c0-0.8-0.7-1.5-1.5-1.5h-3.6c-0.8,0-1.5,0.7-1.5,1.5s0.7,1.5,1.5,1.5h3.6   C52.6,35.9,53.3,35.2,53.3,34.4z M53.3,74.8c0-0.8-0.7-1.5-1.5-1.5h-3.6c-0.8,0-1.5,0.7-1.5,1.5s0.7,1.5,1.5,1.5h3.6   C52.6,76.3,53.3,75.6,53.3,74.8z M34.4,54.6c0-0.8-0.7-1.5-1.5-1.5h-3.6c-0.8,0-1.5,0.7-1.5,1.5s0.7,1.5,1.5,1.5h3.6   C33.7,56.1,34.4,55.4,34.4,54.6z"/>
</g>
<g id="_x31_4"/>
<g id="_x31_5"/>
<g id="_x31_6"/>
<g id="_x31_7"/>
<g id="_x31_8"/>
<g id="_x31_9"/>
<g id="_x32_0"/>
<g id="_x32_1"/>
<g id="_x32_2"/>
<g id="_x32_3"/>
<g id="_x32_4"/>
<g id="_x32_5"/>
</svg>