<?xml version="1.0" ?>
<!DOCTYPE svg  PUBLIC '-//W3C//DTD SVG 1.1//EN'  'http://www.w3.org/Graphics/SVG/1.1/DTD/svg11.dtd'>
<!-- Uploaded to: SVG Repo, www.svgrepo.com, Generator: SVG Repo Mixer Tools -->
<svg fill="#000000" width="800px" height="800px" viewBox="0 0 100 100" version="1.1" xml:space="preserve" xmlns="http://www.w3.org/2000/svg" xmlns:xlink="http://www.w3.org/1999/xlink">
<g id="_x31_"/>
<g id="_x32_"/>
<g id="_x33_"/>
<g id="_x34_">
<path d="M64.4,35.4h-4h-9.3v-3.8c0-0.8-0.7-1.5-1.5-1.5h-14c-0.8,0-1.5,0.7-1.5,1.5v12.9v45.1c0,0.8,0.7,1.5,1.5,1.5h27.3   c0.8,0,1.5-0.7,1.5-1.5V44.5c0-0.8-0.7-1.5-1.5-1.5h-1v-4.6h2.5c0.8,0,1.5-0.7,1.5-1.5S65.2,35.4,64.4,35.4z M37.1,33.2h11v3.8V43   h-11V33.2z M61.4,88.1H37.1V46h12.5h10.8h1V88.1z M51.1,43v-4.6h7.8V43H51.1z M56.7,82c-0.8,0-1.5-0.7-1.5-1.5V58.6   c0-0.8,0.7-1.5,1.5-1.5s1.5,0.7,1.5,1.5v21.8C58.2,81.3,57.5,82,56.7,82z M42.8,27.7c-4.2,0-7.6-3.4-7.6-7.6c0-3.7,0.4-5.7,1.5-6.7   c1.4-1.3,2.9-0.2,3.4,0.2c0.1,0.1,0.2,0.2,0.4,0.3c0.2-0.3,0.7-1,1.3-2.9c0.7-2.3,2.3-2.3,2.8-2.2c3.2,0.5,5.8,8.8,5.8,11.4   C50.4,24.3,47,27.7,42.8,27.7z M38.6,16.2c-0.1,0.6-0.3,1.8-0.3,3.9c0,2.5,2,4.6,4.6,4.6c2.5,0,4.6-2,4.6-4.6c0-2-1.7-6.3-2.9-7.9   c-0.9,2.8-1.9,4.2-3.2,4.6C40.1,17.2,39.2,16.7,38.6,16.2z"/>
</g>
<g id="_x35_"/>
<g id="_x36_"/>
<g id="_x37_"/>
<g id="_x38__x27_"/>
<g id="_x39_"/>
<g id="_x31_0"/>
<g id="_x31_1"/>
<g id="_x31_2"/>
<g id="_x31_3"/>
<g id="_x31_4"/>
<g id="_x31_5"/>
<g id="_x31_6"/>
<g id="_x31_7"/>
<g id="_x31_8"/>
<g id="_x31_9"/>
<g id="_x32_0"/>
<g id="_x32_1"/>
<g id="_x32_2"/>
<g id="_x32_3"/>
<g id="_x32_4"/>
<g id="_x32_5"/>
</svg>