<?xml version="1.0" ?>
<!DOCTYPE svg  PUBLIC '-//W3C//DTD SVG 1.1//EN'  'http://www.w3.org/Graphics/SVG/1.1/DTD/svg11.dtd'>
<!-- Uploaded to: SVG Repo, www.svgrepo.com, Generator: SVG Repo Mixer Tools -->
<svg fill="#000000" width="800px" height="800px" viewBox="0 0 100 100" version="1.1" xml:space="preserve" xmlns="http://www.w3.org/2000/svg" xmlns:xlink="http://www.w3.org/1999/xlink">
<g id="_x31_"/>
<g id="_x32_"/>
<g id="_x33_"/>
<g id="_x34_"/>
<g id="_x35_"/>
<g id="_x36_"/>
<g id="_x37_"/>
<g id="_x38__x27_"/>
<g id="_x39_"/>
<g id="_x31_0"/>
<g id="_x31_1"/>
<g id="_x31_2"/>
<g id="_x31_3"/>
<g id="_x31_4"/>
<g id="_x31_5"/>
<g id="_x31_6"/>
<g id="_x31_7"/>
<g id="_x31_8"/>
<g id="_x31_9"/>
<g id="_x32_0">
<path d="M82.1,82.9L45.4,46.1c1.8-2.4,3.2-4.8,3.2-5c0.3-0.6,0.2-1.3-0.2-1.8L34.9,25.9c-0.1-0.1-0.2-0.1-0.3-0.2   c-0.1-0.2-0.3-0.5-0.5-0.7c-2.4-2.4-7-0.5-10.7,2.8l-3.2-3.2c-0.6-0.6-1.5-0.6-2.1,0s-0.6,1.5,0,2.1l3.2,3.2   c-3.3,3.7-5.2,8.3-2.8,10.7c0.2,0.2,0.4,0.4,0.7,0.5c0.1,0.1,0.1,0.2,0.2,0.2l13.4,13.4c0.3,0.3,0.7,0.4,1.1,0.4   c0.2,0,0.5-0.1,0.7-0.2c0.1-0.1,2.6-1.4,5.1-3.2l13.8,13.8l-10,2.7c-0.4,0.1-0.7,0.4-0.9,0.7s-0.2,0.8-0.1,1.1l1.5,5.4   c0.2,0.8,1,1.3,1.8,1.1l14.7-4l15.9,15.9c0.3,0.3,0.7,0.4,1.1,0.4s0.8-0.1,1.1-0.4l3.7-3.7C82.7,84.4,82.7,83.5,82.1,82.9z    M23.4,32.1l1.8,1.8c0.3,0.3,0.7,0.4,1.1,0.4s0.8-0.1,1.1-0.4c0.6-0.6,0.6-1.5,0-2.1L25.6,30c2.4-2.1,4.7-3,5.8-3   c0.3,0,0.5,0.1,0.6,0.2c0.1,0.1,0.2,0.5,0.2,0.9c-0.3,1.3-1.1,3.5-3.3,5.9c0,0,0,0,0,0.1c-0.2,0.2-0.5,0.5-0.7,0.7   c-0.2,0.2-0.5,0.5-0.7,0.7c0,0,0,0-0.1,0c-2.4,2.2-4.6,3-5.9,3.3c-0.4,0-0.7,0-0.9-0.2C20,38,20.8,35.2,23.4,32.1z M34.1,52   L23.5,41.4c1.9-0.6,4-1.9,5.8-3.6c0.3-0.3,0.7-0.6,1-0.9c0.3-0.3,0.6-0.6,0.9-0.9c0,0,0.1-0.1,0.1-0.1c1.6-1.8,2.9-3.9,3.5-5.8   l10.6,10.6c-1,1.6-3,4.7-4.8,6.6C38.8,49.1,35.7,51.1,34.1,52z M77.4,85.5L61.9,70c-0.3-0.3-0.7-0.4-1.1-0.4c-0.1,0-0.3,0-0.4,0.1   l-14.1,3.8L45.7,71l11-3c0.5-0.1,0.9-0.5,1.1-1.1c0.1-0.5,0-1.1-0.4-1.4L42.3,50.4l1.5-1.5L78.9,84L77.4,85.5z M49.5,27.5   c-0.4,0-0.9-0.2-1.2-0.6c-0.2-0.2-1.8-2.4-1.5-4.8c0.2-1.2,0.8-2.2,1.8-3c1.5-1.2-0.1-3.4-0.3-3.6c-0.5-0.7-0.4-1.6,0.3-2.1   c0.7-0.5,1.6-0.4,2.1,0.3c0.2,0.2,1.8,2.4,1.5,4.8c-0.2,1.2-0.8,2.2-1.8,3c-1.5,1.2,0.1,3.4,0.3,3.6c0.5,0.7,0.4,1.6-0.3,2.1   C50.1,27.4,49.8,27.5,49.5,27.5z M39.9,21.4c-0.4,0-0.8-0.2-1.1-0.5c-1.1-1.3-2-3.9,0.1-5.8c0.6-0.6,0.1-1.4-0.1-1.7   c-0.5-0.6-0.4-1.6,0.2-2.1c0.6-0.5,1.6-0.5,2.1,0.2c1.1,1.3,2,3.9-0.1,5.8c-0.7,0.6,0,1.5,0.1,1.7c0.5,0.6,0.5,1.6-0.2,2.1   C40.6,21.3,40.2,21.4,39.9,21.4z"/>
</g>
<g id="_x32_1"/>
<g id="_x32_2"/>
<g id="_x32_3"/>
<g id="_x32_4"/>
<g id="_x32_5"/>
</svg>