<?xml version="1.0" ?>
<!DOCTYPE svg  PUBLIC '-//W3C//DTD SVG 1.1//EN'  'http://www.w3.org/Graphics/SVG/1.1/DTD/svg11.dtd'>
<!-- Uploaded to: SVG Repo, www.svgrepo.com, Generator: SVG Repo Mixer Tools -->
<svg fill="#000000" width="800px" height="800px" viewBox="0 0 100 100" version="1.1" xml:space="preserve" xmlns="http://www.w3.org/2000/svg" xmlns:xlink="http://www.w3.org/1999/xlink">
<g id="_x31_"/>
<g id="_x32_"/>
<g id="_x33_"/>
<g id="_x34_"/>
<g id="_x35_"/>
<g id="_x36_"/>
<g id="_x37_"/>
<g id="_x38__x27_"/>
<g id="_x39_">
<path d="M72.8,34.8H27.2c-0.8,0-1.5-0.7-1.5-1.5V21.6c0-5.6,4.5-10.1,10.1-10.1h28.3c5.6,0,10.1,4.5,10.1,10.1v11.7   C74.3,34.1,73.6,34.8,72.8,34.8z M28.7,31.8h42.5V21.6c0-3.9-3.2-7.1-7.1-7.1H35.8c-3.9,0-7.1,3.2-7.1,7.1V31.8z M50,89.2H35.8   c-5.6,0-10.1-4.5-10.1-10.1v-3.4c0-0.8,0.7-1.5,1.5-1.5H50c0.8,0,1.5,0.7,1.5,1.5v12C51.5,88.5,50.8,89.2,50,89.2z M28.7,77.2v1.9   c0,3.9,3.2,7.1,7.1,7.1h12.7v-9H28.7z M64.2,89.2H50c-0.8,0-1.5-0.7-1.5-1.5v-12c0-0.8,0.7-1.5,1.5-1.5h22.8c0.8,0,1.5,0.7,1.5,1.5   v3.4C74.3,84.7,69.7,89.2,64.2,89.2z M51.5,86.2h12.7c3.9,0,7.1-3.2,7.1-7.1v-1.9H51.5V86.2z M59,34.8H41c-2.9,0-5.3-2.4-5.3-5.3   v-6.4c0-2.9,2.4-5.3,5.3-5.3H59c2.9,0,5.3,2.4,5.3,5.3v6.4C64.2,32.4,61.9,34.8,59,34.8z M41,20.9c-1.2,0-2.3,1-2.3,2.3v6.4   c0,1.2,1,2.3,2.3,2.3H59c1.2,0,2.3-1,2.3-2.3v-6.4c0-1.2-1-2.3-2.3-2.3H41z M50,48.5H32c-3.4,0-6.3-2.8-6.3-6.3V38   c0-3.4,2.8-6.2,6.3-6.2h18c0.8,0,1.5,0.7,1.5,1.5V47C51.5,47.8,50.8,48.5,50,48.5z M32,34.8c-1.8,0-3.3,1.5-3.3,3.2v4.2   c0,1.8,1.5,3.3,3.3,3.3h16.5V34.8H32z M68,48.5H50c-0.8,0-1.5-0.7-1.5-1.5V33.3c0-0.8,0.7-1.5,1.5-1.5h18c3.4,0,6.3,2.8,6.3,6.2   v4.2C74.3,45.7,71.5,48.5,68,48.5z M51.5,45.5H68c1.8,0,3.3-1.5,3.3-3.3V38c0-1.8-1.5-3.2-3.3-3.2H51.5V45.5z M50,63.4H32   c-3.4,0-6.3-2.8-6.3-6.3v-5.4c0-3.4,2.8-6.2,6.3-6.2h18c0.8,0,1.5,0.7,1.5,1.5v14.9C51.5,62.7,50.8,63.4,50,63.4z M32,48.5   c-1.8,0-3.3,1.5-3.3,3.2v5.4c0,1.8,1.5,3.3,3.3,3.3h16.5V48.5H32z M68,63.4H50c-0.8,0-1.5-0.7-1.5-1.5V47c0-0.8,0.7-1.5,1.5-1.5h18   c3.4,0,6.3,2.8,6.3,6.2v5.4C74.3,60.6,71.5,63.4,68,63.4z M51.5,60.4H68c1.8,0,3.3-1.5,3.3-3.3v-5.4c0-1.8-1.5-3.2-3.3-3.2H51.5   V60.4z M50,77.2H32c-3.4,0-6.3-2.8-6.3-6.3v-4.3c0-3.4,2.8-6.3,6.3-6.3h18c0.8,0,1.5,0.7,1.5,1.5v13.8C51.5,76.5,50.8,77.2,50,77.2   z M32,63.4c-1.8,0-3.3,1.5-3.3,3.3v4.3c0,1.8,1.5,3.3,3.3,3.3h16.5V63.4H32z M68,77.2H50c-0.8,0-1.5-0.7-1.5-1.5V61.9   c0-0.8,0.7-1.5,1.5-1.5h18c3.4,0,6.3,2.8,6.3,6.3v4.3C74.3,74.4,71.5,77.2,68,77.2z M51.5,74.2H68c1.8,0,3.3-1.5,3.3-3.3v-4.3   c0-1.8-1.5-3.3-3.3-3.3H51.5V74.2z M50,26.3"/>
</g>
<g id="_x31_0"/>
<g id="_x31_1"/>
<g id="_x31_2"/>
<g id="_x31_3"/>
<g id="_x31_4"/>
<g id="_x31_5"/>
<g id="_x31_6"/>
<g id="_x31_7"/>
<g id="_x31_8"/>
<g id="_x31_9"/>
<g id="_x32_0"/>
<g id="_x32_1"/>
<g id="_x32_2"/>
<g id="_x32_3"/>
<g id="_x32_4"/>
<g id="_x32_5"/>
</svg>