<?xml version="1.0" ?>
<!DOCTYPE svg  PUBLIC '-//W3C//DTD SVG 1.1//EN'  'http://www.w3.org/Graphics/SVG/1.1/DTD/svg11.dtd'>
<!-- Uploaded to: SVG Repo, www.svgrepo.com, Generator: SVG Repo Mixer Tools -->
<svg fill="#000000" width="800px" height="800px" viewBox="0 0 100 100" version="1.1" xml:space="preserve" xmlns="http://www.w3.org/2000/svg" xmlns:xlink="http://www.w3.org/1999/xlink">
<g id="_x31_">
<path d="M88.8,79.9h-5.7L51.9,23.5l0-4.9c0-0.8-0.7-1.5-1.5-1.5c0,0,0,0,0,0c-0.8,0-1.5,0.7-1.5,1.5l0,4.9l-32,56.5h-5.7   c-0.8,0-1.5,0.7-1.5,1.5s0.7,1.5,1.5,1.5h6.6h23.5h17.5h23.5h6.6c0.8,0,1.5-0.7,1.5-1.5S89.7,79.9,88.8,79.9z M42.8,79.9v-9.7   c0-4,3.2-7.2,7.2-7.2s7.2,3.2,7.2,7.2v9.7H42.8z M60.2,79.9v-9.7C60.2,64.6,55.6,60,50,60s-10.2,4.6-10.2,10.2v9.7H20.4l30-53   l29.3,53H60.2z"/>
</g>
<g id="_x32_"/>
<g id="_x33_"/>
<g id="_x34_"/>
<g id="_x35_"/>
<g id="_x36_"/>
<g id="_x37_"/>
<g id="_x38__x27_"/>
<g id="_x39_"/>
<g id="_x31_0"/>
<g id="_x31_1"/>
<g id="_x31_2"/>
<g id="_x31_3"/>
<g id="_x31_4"/>
<g id="_x31_5"/>
<g id="_x31_6"/>
<g id="_x31_7"/>
<g id="_x31_8"/>
<g id="_x31_9"/>
<g id="_x32_0"/>
<g id="_x32_1"/>
<g id="_x32_2"/>
<g id="_x32_3"/>
<g id="_x32_4"/>
<g id="_x32_5"/>
</svg>